<svg width="1600" height="900" viewBox="0 0 1600 900" fill="none" xmlns="http://www.w3.org/2000/svg">
<mask id="mask0_12_36" style="mask-type:alpha" maskUnits="userSpaceOnUse" x="0" y="0" width="1600" height="900">
<rect width="1600" height="900" fill="#EFF0F2"/>
</mask>
<g mask="url(#mask0_12_36)">
<line x1="-255.225" y1="125.539" x2="212.006" y2="1281.98" stroke="white" stroke-width="10"/>
<line x1="-189.534" y1="98.5972" x2="277.697" y2="1255.03" stroke="#FEA1BF" stroke-width="10"/>
<line x1="-119.068" y1="70.127" x2="348.163" y2="1226.56" stroke="#78B4C1" stroke-width="10"/>
<line x1="1062.78" y1="-199.461" x2="1530.01" y2="956.976" stroke="white" stroke-width="10"/>
<line x1="1128.47" y1="-226.403" x2="1595.7" y2="930.034" stroke="#FEA1BF" stroke-width="10"/>
<line x1="1198.93" y1="-254.873" x2="1666.16" y2="901.564" stroke="#78B4C1" stroke-width="10"/>
<line x1="1293.78" y1="-227.461" x2="1761.01" y2="928.976" stroke="white" stroke-width="10"/>
<line x1="1359.47" y1="-254.403" x2="1826.7" y2="902.034" stroke="#FEA1BF" stroke-width="10"/>
<line x1="1429.93" y1="-282.873" x2="1897.16" y2="873.564" stroke="#78B4C1" stroke-width="10"/>
<line x1="622.775" y1="-144.461" x2="1090.01" y2="1011.98" stroke="white" stroke-width="10"/>
<line x1="688.466" y1="-171.403" x2="1155.7" y2="985.034" stroke="#FEA1BF" stroke-width="10"/>
<line x1="758.932" y1="-199.873" x2="1226.16" y2="956.564" stroke="#78B4C1" stroke-width="10"/>
<line x1="853.775" y1="-172.461" x2="1321.01" y2="983.976" stroke="white" stroke-width="10"/>
<line x1="919.466" y1="-199.403" x2="1386.7" y2="957.034" stroke="#FEA1BF" stroke-width="10"/>
<line x1="989.932" y1="-227.873" x2="1457.16" y2="928.564" stroke="#78B4C1" stroke-width="10"/>
<line x1="-79.2249" y1="-25.4614" x2="388.006" y2="1130.98" stroke="white" stroke-width="10"/>
<line x1="-13.534" y1="-52.4028" x2="453.697" y2="1104.03" stroke="#FEA1BF" stroke-width="10"/>
<line x1="56.9318" y1="-80.873" x2="524.163" y2="1075.56" stroke="#78B4C1" stroke-width="10"/>
<line x1="154.775" y1="-81.4614" x2="622.006" y2="1074.98" stroke="white" stroke-width="10"/>
<line x1="220.466" y1="-108.403" x2="687.697" y2="1048.03" stroke="#FEA1BF" stroke-width="10"/>
<line x1="290.932" y1="-136.873" x2="758.163" y2="1019.56" stroke="#78B4C1" stroke-width="10"/>
<line x1="388.775" y1="-102.461" x2="856.006" y2="1053.98" stroke="white" stroke-width="10"/>
<line x1="454.466" y1="-129.403" x2="921.697" y2="1027.03" stroke="#FEA1BF" stroke-width="10"/>
<line x1="524.932" y1="-157.873" x2="992.163" y2="998.564" stroke="#78B4C1" stroke-width="10"/>
</g>
</svg>
