<svg width="1600" height="900" viewBox="0 0 1600 900" fill="none" xmlns="http://www.w3.org/2000/svg">
<mask id="mask0_12_140" style="mask-type:alpha" maskUnits="userSpaceOnUse" x="0" y="0" width="1600" height="900">
<rect width="1600" height="900" fill="#D9D9D9"/>
</mask>
<g mask="url(#mask0_12_140)">
<line x1="52.1108" y1="-0.00378418" x2="52.1108" y2="899.996" stroke="black" stroke-width="2"/>
<line x1="103" x2="103" y2="900" stroke="black" stroke-width="2"/>
<line x1="154" x2="154" y2="900" stroke="black" stroke-width="2"/>
<line x1="204.889" y1="0.00378418" x2="204.889" y2="900.004" stroke="black" stroke-width="2"/>
<line x1="256" x2="256" y2="900" stroke="black" stroke-width="2"/>
<line x1="306.889" y1="0.00378418" x2="306.889" y2="900.004" stroke="black" stroke-width="2"/>
<line x1="357.889" y1="0.00378418" x2="357.889" y2="900.004" stroke="black" stroke-width="2"/>
<line x1="408.778" y1="0.00756836" x2="408.778" y2="900.008" stroke="black" stroke-width="2"/>
<line x1="460" x2="460" y2="900" stroke="black" stroke-width="2"/>
<line x1="510.889" y1="0.00378418" x2="510.889" y2="900.004" stroke="black" stroke-width="2"/>
<line x1="561.889" y1="0.00378418" x2="561.889" y2="900.004" stroke="black" stroke-width="2"/>
<line x1="612.778" y1="0.00756836" x2="612.778" y2="900.008" stroke="black" stroke-width="2"/>
<line x1="664" x2="664" y2="900" stroke="black" stroke-width="2"/>
<line x1="714.889" y1="0.00378418" x2="714.889" y2="900.004" stroke="black" stroke-width="2"/>
<line x1="765.889" y1="0.00378418" x2="765.889" y2="900.004" stroke="black" stroke-width="2"/>
<line x1="816.778" y1="0.00756836" x2="816.778" y2="900.008" stroke="black" stroke-width="2"/>
<line x1="868" x2="868" y2="900" stroke="black" stroke-width="2"/>
<line x1="918.889" y1="0.00378418" x2="918.889" y2="900.004" stroke="black" stroke-width="2"/>
<line x1="969.889" y1="0.00378418" x2="969.889" y2="900.004" stroke="black" stroke-width="2"/>
<line x1="1020.78" y1="0.00756836" x2="1020.78" y2="900.008" stroke="black" stroke-width="2"/>
<line x1="1071.89" y1="0.00378418" x2="1071.89" y2="900.004" stroke="black" stroke-width="2"/>
<line x1="1122.78" y1="0.00756836" x2="1122.78" y2="900.008" stroke="black" stroke-width="2"/>
<line x1="1173.78" y1="0.00756836" x2="1173.78" y2="900.008" stroke="black" stroke-width="2"/>
<line x1="1224.67" y1="0.0113525" x2="1224.67" y2="900.011" stroke="black" stroke-width="2"/>
<line x1="1275.89" y1="0.00378418" x2="1275.89" y2="900.004" stroke="black" stroke-width="2"/>
<line x1="1326.78" y1="0.00756836" x2="1326.78" y2="900.008" stroke="black" stroke-width="2"/>
<line x1="1377.78" y1="0.00756836" x2="1377.78" y2="900.008" stroke="black" stroke-width="2"/>
<line x1="1428.67" y1="0.0113525" x2="1428.67" y2="900.011" stroke="black" stroke-width="2"/>
<line x1="1479.89" y1="0.00378418" x2="1479.89" y2="900.004" stroke="black" stroke-width="2"/>
<line x1="1530.78" y1="0.00756836" x2="1530.78" y2="900.008" stroke="black" stroke-width="2"/>
<line x1="1581.78" y1="0.00756836" x2="1581.78" y2="900.008" stroke="black" stroke-width="2"/>
<line y1="610.889" x2="1599.99" y2="610.889" stroke="black" stroke-width="2"/>
<line x1="0.00683594" y1="560" x2="1599.99" y2="560" stroke="black" stroke-width="2"/>
<line y1="508.889" x2="1599.99" y2="508.889" stroke="black" stroke-width="2"/>
<line x1="0.00683594" y1="458" x2="1599.99" y2="458" stroke="black" stroke-width="2"/>
<line x1="0.00683594" y1="407" x2="1599.99" y2="407" stroke="black" stroke-width="2"/>
<line x1="0.0131836" y1="356.111" x2="1600" y2="356.111" stroke="black" stroke-width="2"/>
<line y1="304.889" x2="1599.99" y2="304.889" stroke="black" stroke-width="2"/>
<line y1="866" x2="1599.99" y2="866" stroke="black" stroke-width="2"/>
<line x1="0.00683594" y1="815.111" x2="1599.99" y2="815.111" stroke="black" stroke-width="2"/>
<line x1="0.00683594" y1="764.111" x2="1599.99" y2="764.111" stroke="black" stroke-width="2"/>
<line x1="0.0131836" y1="713.222" x2="1600" y2="713.222" stroke="black" stroke-width="2"/>
<line y1="662" x2="1599.99" y2="662" stroke="black" stroke-width="2"/>
<line x1="0.00683594" y1="254" x2="1599.99" y2="254" stroke="black" stroke-width="2"/>
<line x1="0.00683594" y1="203" x2="1599.99" y2="203" stroke="black" stroke-width="2"/>
<line x1="0.0131836" y1="152.111" x2="1600" y2="152.111" stroke="black" stroke-width="2"/>
<line y1="100.889" x2="1599.99" y2="100.889" stroke="black" stroke-width="2"/>
<line x1="0.00683594" y1="50" x2="1599.99" y2="50" stroke="black" stroke-width="2"/>
</g>
</svg>
